# xmcd
#
# Track frame offsets:
# 150
# 13623
# 30510
# 44343
# 59300
# 72385
# 85650
# 98923
# 112130
# 126860
#
# Disc length: 1900 seconds
#
#
# Revision: 0
# Processed by: cddbd v1.5.1PL0 Copyright (c) Steve Scherf et al.
# Submitted via: FreeRIP 2.91 
#
DISCID=82076a0a
DTITLE=Bessie Smith - Bessie Smith Sings The Blues
DYEAR=1995
DGENRE=Blues
TTITLE0=Dying Gambler's Blues
TTITLE1=Nashville Women's Blues
TTITLE2=The Yellow Dog Blues
TTITLE3=Backwater Blues
TTITLE4=Standin' In The Rain Blues
TTITLE5=Blue Spirit Blues
TTITLE6=Kitchen Man
TTITLE7=Hot Spring Blues
TTITLE8=Frosty Mornin' Blues
TTITLE9=Haunted House Blues
EXTD=
EXTT0=
EXTT1=
EXTT2=
EXTT3=
EXTT4=
EXTT5=
EXTT6=
EXTT7=
EXTT8=
EXTT9=
PLAYORDER=
